<svg width="24" height="24" viewBox="0 0 24 24" fill="none" xmlns="http://www.w3.org/2000/svg">
<path d="M0.93934 20.9393C0.353553 21.5251 0.353553 22.4749 0.93934 23.0607C1.52513 23.6464 2.47487 23.6464 3.06066 23.0607L0.93934 20.9393ZM23.5 2C23.5 1.17157 22.8284 0.500001 22 0.500001L8.5 0.5C7.67157 0.5 7 1.17157 7 2C7 2.82843 7.67157 3.5 8.5 3.5H20.5V15.5C20.5 16.3284 21.1716 17 22 17C22.8284 17 23.5 16.3284 23.5 15.5L23.5 2ZM3.06066 23.0607L23.0607 3.06066L20.9393 0.93934L0.93934 20.9393L3.06066 23.0607Z" fill="white"/>
</svg>
