<svg width="93" height="91" viewBox="0 0 93 91" fill="none" xmlns="http://www.w3.org/2000/svg">
<mask id="mask0_11_130" style="mask-type:luminance" maskUnits="userSpaceOnUse" x="7" y="2" width="79" height="87">
<path d="M7.39453 2.33306H85.1491V88.6466H7.39453V2.33306Z" fill="white"/>
</mask>
<g mask="url(#mask0_11_130)">
<path d="M85.1374 2.33295H7.40625L14.2648 79.5609L46.2718 88.6465L78.2789 79.5609L85.1374 2.33295Z" fill="#334450"/>
</g>
<path d="M46.2729 9.14874V81.6065L71.8785 74.3379L77.5941 9.14874H46.2729Z" fill="#334450"/>
<path d="M67.0775 20.5054H46.2729V29.5909H57.4755L56.7896 38.6765H46.2729V47.7623H56.3324L55.6464 57.9837L46.2729 61.1634V70.7035L64.334 64.7978L65.9343 38.6765L67.0775 20.5054Z" fill="#121F28"/>
<path d="M46.2727 20.5054V29.5909H25.9254L25.2395 20.5054H46.2727ZM35.7561 38.6765L36.2133 47.7623H46.2727V38.6765H35.7561ZM36.6705 52.3049H27.5258L28.2117 64.7978L46.2727 70.7035V61.1634L36.8992 57.9837L36.6705 52.3049Z" fill="#121F28"/>
</svg>
