<svg width="93" height="91" viewBox="0 0 93 91" fill="none" xmlns="http://www.w3.org/2000/svg">
<mask id="mask0_11_120" style="mask-type:luminance" maskUnits="userSpaceOnUse" x="7" y="2" width="79" height="87">
<path d="M7.6106 2.00102H85.5714V88.997H7.6106V2.00102Z" fill="white"/>
</mask>
<g mask="url(#mask0_11_120)">
<path d="M14.6877 80.2725L7.58838 2.04119H85.5934L78.4885 80.2616L46.5411 88.959L14.6877 80.2725Z" fill="#334450"/>
</g>
<path d="M72.4037 75.2806L78.4775 8.43873H46.5911V82.3129L72.4037 75.2806Z" fill="#334450"/>
<path d="M46.5577 18.0326H22.1023L24.737 47.0476H46.5909V37.4538H33.6693L32.7762 27.6291H46.5909V18.0326H46.5577ZM46.5909 62.3401L46.5495 62.351L35.6735 59.4665L34.9824 51.8147H25.1737L26.5423 66.8792L46.5466 72.3117L46.5909 72.298V62.3401Z" fill="#121F28"/>
<path d="M46.5578 47.0476H58.5837L57.4779 59.4881L46.5855 62.3754V72.3577L66.6064 66.9062L69.2882 37.4483H46.5911L46.5578 47.0476ZM70.7865 20.6076L71.0187 18.0326H46.5522V27.6262H70.1396L70.3332 25.4697L70.7865 20.6076Z" fill="#121F28"/>
</svg>
