<svg width="90" height="89" viewBox="0 0 90 89" fill="none" xmlns="http://www.w3.org/2000/svg">
<g clip-path="url(#clip0_9_111)">
<path d="M20.8776 52.9402C20.8776 50.4778 30.2862 49.0946 34.664 48.7572L35.082 48.9982C33.3988 49.3023 26.6474 50.4852 26.6474 52.0279C26.6474 53.7078 37.004 54.8092 43.0128 54.8092C53.2201 54.8092 60.1618 53.2739 62.0279 52.7696L64.6404 54.2789C62.8527 55.1503 55.1757 57.4272 43.0128 57.4272C29.4987 57.4272 20.8776 54.8017 20.8776 52.9402ZM41.4751 87.5315C36.127 87.576 29.5958 87.1384 24.1021 86.2225L23.5908 86.5117C29.0658 88.1063 36.6868 89.0705 45.058 88.9963C61.5017 88.8554 74.8328 84.8022 75.094 79.9257L74.9037 79.8145C73.8027 81.1532 66.693 87.3127 41.4751 87.5315ZM42.8747 84.3905C56.3327 84.2719 71.3918 81.6575 71.3507 77.2594C71.3433 76.4621 70.8208 75.9133 70.3655 75.587L70.1453 75.713C68.9025 79.121 58.3891 81.639 42.8523 81.7725C32.8278 81.8615 18.9443 79.4733 18.9182 76.718C18.8958 73.9516 25.4979 72.4349 25.4979 72.4349L25.0314 72.1642C20.6088 72.7686 12.4542 74.875 12.4803 77.9158C12.5176 82.3102 31.2528 84.4907 42.8747 84.3905ZM73.1944 54.1157C72.922 59.274 68.1262 62.4891 63.3304 65.1999L63.7633 65.4484C68.8801 64.017 78.0088 59.8525 77.2549 53.4519C76.878 50.2627 73.9408 47.9784 70.1154 47.9784C68.9211 47.9784 67.8612 48.1861 67.0028 48.4457L66.9991 48.4531L66.8162 48.9055C70.2423 48.2491 73.3698 50.7337 73.1944 54.1157ZM33.6601 69.446C32.1 69.7537 28.6963 70.5325 28.6963 72.1753C28.6963 74.4522 35.9777 76.1988 43.009 76.1988C52.6827 76.1988 56.6462 73.7254 56.8253 73.5956L52.8021 71.2816C51.0928 71.6858 48.2079 72.3199 43.0202 72.3199C37.228 72.3199 33.4548 71.3372 33.4548 70.2581C33.4548 70.0282 33.6003 69.7575 33.8653 69.5572L33.6601 69.446ZM57.4262 61.766C55.2019 62.3927 50.1896 63.4125 43.0239 63.4125C35.9926 63.4125 30.2452 62.2184 30.2265 60.8093C30.2116 59.871 31.3536 59.4631 31.3536 59.4631L31.1521 59.3482C27.782 59.9378 24.6545 60.8537 24.6731 62.2221C24.703 64.7067 34.2647 66.5683 43.009 66.5683C50.4434 66.5683 57.5829 65.3297 60.8038 63.7055L57.4262 61.766Z" fill="#334450"/>
<path d="M55.5079 6.36721C55.5079 20.0621 36.6233 25.302 36.6233 35.0363C36.6233 41.8708 41.184 46.1576 43.7106 48.8684L43.5054 48.9871C40.3181 47.0068 31.9358 42.0303 31.9358 33.8089C31.9358 22.2685 53.6306 16.7543 53.6306 3.64529C53.6306 2.03217 53.3917 0.793583 53.2201 0.129792L53.4365 0C54.1232 0.856625 55.5079 3.00375 55.5079 6.36721ZM61.7181 18.4935L61.4904 18.3637C57.3814 19.732 44.7295 24.6938 44.7295 33.9461C44.7295 39.1785 49.8724 42.0785 49.8724 46.9846C49.8724 48.7349 48.8759 50.3777 48.0697 51.3567L48.4765 51.5903C50.6188 50.2071 54.4069 47.2145 54.4069 43.3504C54.4069 40.076 49.85 36.1451 49.85 31.9362C49.8462 25.3094 58.6428 20.1103 61.7181 18.4935Z" fill="#334450"/>
</g>
<defs>
<clipPath id="clip0_9_111">
<rect width="89.5708" height="89" fill="white" transform="translate(0.104492)"/>
</clipPath>
</defs>
</svg>
