<svg width="93" height="91" viewBox="0 0 93 91" fill="none" xmlns="http://www.w3.org/2000/svg">
<mask id="mask0_11_139" style="mask-type:luminance" maskUnits="userSpaceOnUse" x="3" y="2" width="87" height="87">
<path d="M3.48291 2.78661H89.48V88.2356H3.48291V2.78661Z" fill="white"/>
</mask>
<g mask="url(#mask0_11_139)">
<path d="M3.48291 2.78661H89.48V88.2356H3.48291V2.78661Z" fill="#334450"/>
</g>
<path d="M59.7108 66.7471C61.3638 69.415 63.1602 71.9713 66.9654 71.9713C70.1618 71.9713 71.8387 70.393 71.8387 68.2092C71.8387 65.5958 70.1043 64.6678 66.5881 63.1464L64.6603 62.3298C59.0966 59.9849 55.3966 57.0463 55.3966 50.8394C55.3966 45.1189 59.8038 40.7659 66.6907 40.7659C71.5949 40.7659 75.1185 42.4534 77.6602 46.873L71.6548 50.6875C70.3338 48.3423 68.9051 47.419 66.6907 47.419C64.4309 47.419 63.0001 48.8359 63.0001 50.6875C63.0001 52.9755 64.4333 53.9014 67.7417 55.3183L69.6695 56.1349C76.2268 58.9094 79.9248 61.7435 79.9248 68.1142C79.9248 74.9788 74.4686 78.7408 67.1445 78.7408C59.9805 78.7408 55.9124 75.1686 53.6479 70.7466L59.7108 66.7471ZM32.0339 66.9416C33.2426 69.0922 35.0798 70.7466 37.7216 70.7466C40.249 70.7466 41.7038 69.7543 41.7038 65.8973V40.7635H49.6657V67.1127C49.6657 75.1044 45.0004 78.7408 38.1874 78.7408C32.0315 78.7408 27.5883 74.5965 25.7776 70.7466L32.0339 66.9416Z" fill="#121F28"/>
</svg>
