<svg width="90" height="88" viewBox="0 0 90 88" fill="none" xmlns="http://www.w3.org/2000/svg">
<g clip-path="url(#clip0_9_115)">
<path d="M44.6917 -1.21214e-06C41.079 0.0183321 37.6287 0.322665 34.5954 0.857999C25.6541 2.42733 24.0304 5.71267 24.0304 11.77V19.7707H45.1604V22.44H24.0304H16.1002C9.9597 22.44 4.5831 26.1067 2.90037 33.0843C0.959336 41.0813 0.874462 46.0717 2.90037 54.4207C4.40228 60.6357 7.98914 65.065 14.1296 65.065H21.3956V55.473C21.3956 48.543 27.429 42.4307 34.5954 42.4307H55.6995C61.5743 42.4307 66.2645 37.6237 66.2645 31.7607V11.77C66.2645 6.07933 61.4341 1.80767 55.6995 0.857999C52.0684 0.256665 48.3007 -0.0146679 44.6917 -1.21214e-06ZM33.2632 6.435C35.4441 6.435 37.2265 8.23533 37.2265 10.4463C37.2265 12.65 35.4441 14.4357 33.2632 14.4357C31.0712 14.4357 29.3 12.6537 29.3 10.4463C29.3 8.23533 31.0749 6.435 33.2632 6.435Z" fill="#334450"/>
<path d="M68.8955 22.44V31.7643C68.8955 38.9913 62.7292 45.0743 55.6957 45.0743H34.5953C28.8128 45.0743 24.0303 49.9913 24.0303 55.7443V75.735C24.0303 81.4257 29.0083 84.7697 34.5953 86.405C41.2819 88.3593 47.6954 88.7113 55.6994 86.405C61.017 84.876 66.2644 81.796 66.2644 75.735V67.7343H45.1603V65.0687H66.2644H76.8294C82.9699 65.0687 85.2578 60.8117 87.3944 54.4243C89.6012 47.8463 89.5052 41.525 87.3944 33.088C85.8778 27.0123 82.9773 22.4437 76.8294 22.4437L68.8955 22.44ZM57.0279 73.0657C59.2199 73.0657 60.9912 74.8477 60.9912 77.055C60.9912 79.2697 59.2162 81.0663 57.0279 81.0663C54.847 81.0663 53.0646 79.266 53.0646 77.055C53.0646 74.8477 54.847 73.0657 57.0279 73.0657Z" fill="#334450"/>
</g>
<defs>
<clipPath id="clip0_9_115">
<rect width="88.5644" height="88" fill="white" transform="translate(0.929932)"/>
</clipPath>
</defs>
</svg>
